<svg width="1735" height="970" viewBox="0 0 1735 970" fill="none" xmlns="http://www.w3.org/2000/svg">
<path d="M420 750H350V700L300 750H140C120.667 750 104 743.333 90 730C76.6667 716 70 699.333 70 680V470C70 450.667 76.6667 434.333 90 421C104 407 120.667 400 140 400H350V240L420 170V750ZM350 690V410L300 460H140V690H350ZM1159.53 340H1089.53V260H1159.53V340ZM1159.53 750H1089.53V450L1159.53 380V750ZM1689.49 400L1629.49 460H1379.49V690H1589.49V490H1659.49V890C1659.49 909.333 1652.49 925.667 1638.49 939C1625.16 953 1608.83 960 1589.49 960H1299.49L1359.49 900H1589.49V699L1529.49 750H1379.49C1360.16 750 1343.49 743.333 1329.49 730C1316.16 716 1309.49 699.333 1309.49 680V470C1309.49 450.667 1316.16 434.333 1329.49 421C1343.49 407 1360.16 400 1379.49 400H1689.49Z" fill="#1B1464"/>
<path d="M935 680C935 699.333 928 716 914 730C900.667 743.333 884.333 750 865 750H655C635.667 750 619 743.333 605 730C591.667 716 585 699.333 585 680V610H665V680H855V540H725V482L865 340V330H585V260H935V361L826 470V480C826 479.333 829.667 479 837 479C840.333 479 844.333 479 849 479C853.667 479 859 479.333 865 480C884.333 480.667 900.667 488 914 502C928 515.333 935 531.333 935 550V680Z" fill="#3E53DE"/>
</svg>
